<?xml version="1.0" encoding="utf-8"?>
<!-- Generator: Adobe Illustrator 26.5.0, SVG Export Plug-In . SVG Version: 6.00 Build 0)  -->
<svg version="1.1" id="Layer_1" xmlns="http://www.w3.org/2000/svg" xmlns:xlink="http://www.w3.org/1999/xlink" x="0px" y="0px"
	 viewBox="0 0 593 212.5" style="enable-background:new 0 0 593 212.5;" xml:space="preserve">
<style type="text/css">
	.st0{fill:#3C081B;}
	.st1{fill:#881237;}
</style>
<g>
	<path class="st0" d="M64.1,11.8c1-0.8,1.8-1.5,2.7-2.2c5.1-3.8,10.7-5.9,17.1-5.3c3.6,0.3,6.9,1.7,9.6,4.2c2.2,2,3.2,4.7,3.3,7.5
		c0.2,6.1,1.5,12,3.8,17.7c2.6,6.7,7.2,11.6,13,15.6c4.8,3.2,9.9,6,15.3,7.8c8.9,3,17,7.3,24.8,12.3c7.1,4.5,13.9,9.4,20.1,15.1
		c0.8,0.7,1.3,0.8,2.1,0.1c7.2-6.8,16.2-10.8,24.8-15.3c4.3-2.2,9-3.2,13.7-3.9c4.7-0.8,9.4-1.6,14.1-1.9c5-0.3,10-0.1,15,0
		c2.9,0.1,5.7,0.5,8.6,0.6c8.4,0.3,16.4,2,24.4,4.4c15.5,4.7,30.9,9.7,46.1,15.3c6.8,2.5,13.8,4.7,21,6.2c7.1,1.5,14.2,2.9,21.6,2.4
		c7-0.5,13.9-1.5,20.7-2.7c13-2.3,25.1-7.1,36.9-12.5c8-3.7,16.4-6.2,24.7-8.9c6.8-2.2,13.6-4.3,20.6-5.8c5.7-1.3,11.6-1.8,17.4-2.3
		c5.9-0.5,11.8-0.7,17.7-0.8c4.6,0,9.3,0.3,13.9,0.6c16,1,31.4,5.3,46.6,10.1c6.6,2.1,12.9,5.3,19.3,8.2c2,0.9,3.9,2.4,5.7,3.7
		c2.9,2.2,4.1,5.4,4.3,9c0.3,4.9-1.2,9.5-2.5,14.2c-3.8,13.8-9.9,26.7-16.1,39.5c-3.7,7.8-7.6,15.5-12.5,22.6
		c-1.7,2.4-3.6,4.7-5.6,6.8c-1.9,2-4.2,2.7-7.1,1.8c-8-2.6-16.1-4.9-24.2-7.3c-8.9-2.6-17.9-4.5-27.1-5.8c-7.5-1-15-0.9-22.5-0.1
		c-13.3,1.3-25.8,5.2-38.2,9.7c-10,3.7-20.1,7.1-30.4,10.3c-7.5,2.3-15.3,3.4-23.2,3.9c-6.2,0.4-12.5,1.3-18.7,1.8
		c-3.2,0.2-6.5,0.2-9.7,0c-3.8-0.2-7.6-0.6-11.3-1.1c-11-1.4-21.6-4.1-32-7.9c-11.3-4.1-22.9-6.9-34.6-9.4
		c-5.8-1.2-11.7-2.3-17.5-3.1c-6.9-1-13.9-1.1-20.9-0.6c-9.2,0.7-18.3,2.1-27.1,5c-8.2,2.7-15.8,6.8-23,11.6c-1.6,1.1-3.5,2-5.3,2.8
		c-5.7,2.7-11.3,5.6-17.1,8.1c-7.7,3.2-15.6,5.9-23.3,9.2c-9,3.9-18.2,6.9-27.8,8.7c-4.9,1-9.9,1.1-14.9,1.1
		c-5.4,0-10.7,0.1-16.1-0.3c-11.3-1-22.2-3.3-32.5-8.4c-1.7-0.9-3.3-2.1-4.8-3.3c-2.9-2.2-5.9-4.3-8.5-6.8
		c-8.7-8.4-17.2-17-23.3-27.7c-6.3-11.3-10.6-23.2-13.3-35.8c-2-9.5-2.4-19.2-2-28.8c0.2-4.3,0.9-8.6,1.5-12.8
		c0.4-3.1,0.6-6.3,1.6-9.3c3.2-9.6,6.6-19.2,10.2-28.7c4.5-11.8,9.1-23.5,12.2-35.7c0.5-2,0.9-4.1,1.3-6.2c0.4-1.9,1.3-3.3,3-4.3
		c5-2.9,10.3-4.6,16.1-4.4c5.6,0.2,10.6,2.1,14.6,6c1.2,1.2,2,2.9,2.9,4.3C63.7,10.8,63.9,11.2,64.1,11.8z M70.7,149.4
		c0,0.3,0,0.5,0,0.6c1.3,5.1,4.1,9.1,8.9,11.6c1.5,0.8,2.9,1.7,3.6,3.4c0.6,1.6-0.2,3.4-1.9,3.7c-1,0.1-2,0.1-3-0.2
		c-4.7-1.5-8.6-4.1-11-8.5c-5.4-9.9-8.7-20.4-9-31.8c-0.1-4.9-0.2-9.7-0.2-14.6c0-1.2-0.3-1.9-1.7-2.2c-2.1-0.4-2.8-2.5-1.5-4.3
		c1-1.3,2.1-2.5,3.3-3.6c2.8-2.9,5.3-6,7.2-9.5c4.9-8.8,5.9-17.9,1.6-27.3c-2-4.3-5.3-6.9-9.8-8.2c-1.7-0.5-3.2,0.1-4.1,1.6
		c-0.6,1.1-1.2,2.2-1.4,3.4c-1.2,5-3.3,9.7-5.4,14.4c-3.7,8.2-7.5,16.5-11,24.8c-3.5,8.4-5.2,17.2-5.4,26.3
		c-0.2,6.8,1.2,13.4,2.5,20c0.6,3.1,1.1,6.2,1.5,9.3c0.2,1.2-0.5,2.2-1.6,2.7c-1.1,0.5-2.3,0.6-3.2-0.2c-0.9-0.9-1.8-2-2.3-3.1
		c-0.9-2.5-1.7-5.2-2.3-7.8c-1.4-5.8-2.6-11.7-2.5-17.7c0-3,0.4-6.1,0.7-9.1c0.4-3.5,0.7-7,1.3-10.4c1.1-6.1,3.7-11.8,6-17.5
		c2.4-6.1,5.5-12.1,8-18.2c2-4.8,3.8-9.8,5.7-14.7c0.8-2.2,1.6-4.4,2.5-6.6c0.6-1.5,1.8-2.4,3.2-3.1c4-1.9,7.9-2.2,12-0.3
		c0.9,0.4,1.9,0.8,2.9,1.2c0.2-0.6,0.3-1,0.5-1.4c1.3-4.4,1.4-8.9,1.4-13.5c0-3.4-1.2-6.2-3.3-8.8c-0.5-0.7-1.2-1.3-1.8-2
		c-2.4-2.5-5.3-3.7-8.8-3.5c-2.6,0.2-4.5,1.3-5.4,3.8c-0.5,1.3-1,2.7-1.5,4.1C42,43.9,37.5,55.4,32.3,66.7
		c-3.6,7.8-7.2,15.7-10.3,23.7c-2.9,7.5-4.6,15.4-4.3,23.6c0.3,6.4,0.1,12.8,0.6,19.2c0.3,4,1.2,8,2,12c0.3,1.5,0.7,3,0.1,4.6
		c-0.5,1.4-1.6,2.3-3,2.5c0.1,0.3,0.1,0.4,0.1,0.5c0.1,0.3,0.2,0.5,0.3,0.8c4.4,9.3,9.9,17.9,17.1,25.3c4.4,4.6,8.6,9.5,13.8,13
		c11.7,7.9,24.6,12.8,38.8,13.3c8.5,0.3,17,0.8,25.5-0.8c7.1-1.3,14.2-2.7,20.9-5.6c3.9-1.7,7.7-3.6,11.6-5.2
		c8.2-3.4,16.5-6.4,24.7-9.9c4.9-2.1,9.7-4.5,14.4-7c2.8-1.5,5.3-3.4,8.1-5c5.5-3.2,11.1-6.2,17.2-7.9c7.8-2.2,15.6-3.7,23.6-4.8
		c7.2-1,14.4-1.1,21.6-0.3c7.1,0.7,14.2,1.8,21.3,3.1c12.2,2.3,24.2,5.4,36,9.2c5.1,1.7,10.2,3.4,15.4,5c5.9,1.8,12,2.6,18.1,3.3
		c4.2,0.4,8.5,1,12.7,1.1c7.5,0.1,15.1-0.2,22.6-1.3c5.1-0.7,10.3-1.2,15.4-2.1c7.8-1.4,15.3-4.1,22.8-6.7
		c9.8-3.4,19.6-7.1,29.5-10.2c6.4-2,12.9-3.5,19.5-4.7c6.8-1.2,13.7-1.3,20.6-1.1c3.2,0.1,6.5,0.1,9.7,0.7c7,1.1,13.9,2.3,20.8,4
		c7.2,1.7,14.2,3.9,21.3,5.8c0.4,0.1,0.7,0.2,1.1,0.2c-0.1-1.8-0.3-3.5-0.2-5.1c0.1-3.6,0.3-7.1,0.5-10.6c0.1-1.9,0.2-3.8,0.5-5.6
		c1-5.1,2.2-10.2,4.4-15c3.8-8.2,7.7-16.3,11.8-24.4c3.4-6.8,8.6-12.1,13.8-17.4c1.1-1.1,2.1-2.3,3.2-3.4c0,0,0-0.1-0.1-0.2
		c-2-0.9-3.9-1.9-5.9-2.7c-9.4-3.5-19.1-6.5-28.9-8.9c-13.1-3.2-26.3-4.4-39.7-4.5c-5,0-10.1,0.4-15.1,0.7
		c-4.1,0.3-8.2,0.5-12.2,1.3c-5.9,1.2-11.6,2.7-17.4,4.3c-12.8,3.6-25,8.6-37.2,13.9c-7.6,3.3-15.2,6.5-23.3,8.1
		c-8,1.6-15.9,3.1-23.9,4.6c-3.5,0.7-7,1-10.5,0.5c-2.8-0.4-5.7-0.8-8.5-1.2c-4.1-0.6-8.3-0.8-12.3-1.9c-7.3-2-14.5-4.1-21.5-6.9
		c-14.9-5.9-30.3-10.3-45.6-15.3c-10.7-3.5-21.8-4-32.9-4.3c-6.4-0.2-12.8-0.3-19.1,0.9c-4.4,0.8-9,1.3-13.2,2.8
		c-10.5,3.7-19.9,9.5-28.4,16.7c-0.3,0.2-0.4,1-0.2,1.4c0.4,1.4,1,2.8,1.4,4.2c0.6,2.3,0.9,4.6,0.4,7c-0.3,1.3-1.4,2.3-2.6,2.4
		c-1.1,0.1-2-0.5-2.5-1.8c-0.6-1.6-1.1-3.3-1.8-5c-1.1-3-2.4-5.9-4.8-8.3c-6.6-6.4-14.1-11.6-21.7-16.6c-6.4-4.2-13.2-7.5-20.5-9.9
		c-4.1-1.4-8.2-3.1-12.1-5.2c-5.2-2.8-10.3-5.8-14.3-10.3C96,43.3,92.9,36.3,91,28.8c-1.1-4.6-1.8-9.2-2.7-13.8
		c-0.2-1.2-0.9-2.1-2-2.7c-2.6-1.5-5.3-1.4-8-0.7c-4.7,1.2-8.4,3.7-10.4,8.4c-0.7,1.6-0.3,2.9,0.9,4.1c2.3,2.2,3.8,4.9,4.6,8
		c1.2,4.3,1.2,8.7,0.7,13.1c-0.5,4.1-1.5,8.1-2.9,11.9c-0.3,0.9-0.2,1.6,0.4,2.3c1.9,2.5,3.2,5.3,4,8.3c0.7,2.8,1.4,5.6,2,8.5
		c1.5,7.7,5.3,13.8,12,18.1c1.9,1.2,3.6,2.5,5.5,3.6c1.5,0.9,3.2,1.7,4.9,2.2c2.1,0.6,4.2,1,6.3,1.3c3.4,0.4,6.5,1.7,9.3,3.6
		c0.6,0.4,1.2,1,1.7,1.7c0.6,1,0.7,2.1,0.1,3c-0.7,0.9-1.6,1.3-2.8,1c-1.8-0.5-3.5-0.9-5.3-1.3c-1.7-0.4-3.4-0.9-5.1-1.1
		c-4-0.4-7.9-1.3-11.4-3.3c-2.1-1.2-4.3-1.8-6.7-1.8c-2.6,0-5.1-0.1-7.7-0.2c-1.6-0.1-3.1-0.3-4.7-0.2c-2.7,0.1-5.3,0.6-6.4,3.7
		c-0.4,1.1-0.8,2.2-0.9,3.3c-0.2,5.7-0.5,11.3-0.4,17c0,3.2,0.6,6.3,0.9,9.5c0.3,2.8,1.8,4.6,4.4,5.5c0.7,0.3,1.5,0.4,2.3,0.5
		c3.7,0.6,7.2,0.2,10.2-2.2c1.9-1.5,3.6-3.1,5.4-4.7c0.8-0.7,1.5-1.5,2.3-2.1c1.5-1.1,3.3-0.5,3.9,1.2c0.7,2.2-0.1,4-1.6,5.6
		c-1.8,1.9-3.6,3.7-5.5,5.3c-4.5,3.8-9.7,5.3-15.5,4.3C72.1,149.6,71.4,149.5,70.7,149.4z M549.3,159.3c0.1,1,0.2,2.1,0.4,3.3
		c0.2,1.2,0.5,2.5,0.9,3.7c0.5,1.4,1.3,1.6,2.5,0.9c1.5-0.8,2.5-1.9,3.3-3.4c3.2-6.6,6.6-13.1,9.7-19.8c4.1-8.5,8.2-17,11.8-25.8
		c2.6-6.2,4.2-12.9,6.3-19.3c1-3.2,1.1-6.5,0.7-9.8c-0.2-1.9-1-2.3-2.8-1.4c-0.5,0.3-1,0.6-1.4,0.9c-5,4.4-9.7,9.1-13,14.8
		c-3.7,6.4-7.1,13.1-10.5,19.8c-2.5,4.9-4.5,10.1-5.7,15.4c-0.6,2.9-0.9,6-1.3,9C549.9,151.5,549.6,155.4,549.3,159.3z M10.2,130.8
		c0.1,0,0.2,0,0.3,0c-0.1-1.2-0.1-2.4-0.2-3.6c-0.6-7.2-0.7-14.4,0.3-21.6c1.1-7.8,3-15.5,6.2-22.8c4.9-11.3,10-22.5,14.8-33.9
		c3.1-7.5,6-15,7.7-23c0.4-1.8,1.4-3.3,2.9-4.6c3.9-3.1,8.4-4.6,13.4-4.3c0.6,0,1.2-0.1,1.8-0.2c-0.6-3.3-2.7-6.3-5.2-7.7
		C46.8,6.4,41.5,6.6,36,9c-1.4,0.6-1.9,1.6-2.1,2.9c-0.2,1.3-0.3,2.6-0.7,3.8c-2.4,7.7-4.7,15.5-7.5,23.1
		c-3.4,9.3-7.2,18.4-10.7,27.7c-4.1,10.7-7,21.7-7.3,33.2c-0.2,8.1-0.4,16.2,0.9,24.3C9.2,126.3,9.7,128.6,10.2,130.8z M75.7,91.1
		c-0.7,1.5-1.2,2.7-1.8,4.1c1.9,0,3.4,0,5.2,0C77.9,93.7,76.9,92.5,75.7,91.1z"/>
	<path class="st1" d="M388.2,137.8c0,4.2-1.2,8.1-3.3,11.7c-0.7,1.2-1.8,2.3-3,3.2c-3.8,2.9-8.3,4.2-13,4.6c-2.8,0.3-4.8-1.2-5.4-4
		c-0.4-1.8-0.5-3.6-0.7-5.4c-0.5-4.9-0.9-9.8-1.4-14.7c-0.3-3-0.5-6-0.8-8.9c-0.2-2,0.6-3.5,2.4-4.6c2.1-1.3,4.3-1.6,6.6-1.5
		c4.8,0.2,9.2,1.6,12.6,5.1C386.1,127.3,388.2,132.2,388.2,137.8z M371,149.8c4.5-0.8,7.8-4,8.6-8.2c0.3-1.8,0.5-3.7,0.5-5.6
		c-0.1-4.7-3.1-9.9-9.1-10.7c-2.2-0.3-2.4-0.1-2.2,2.1c0.6,5.6,1.1,11.1,1.6,16.7C370.5,145.9,370.8,147.8,371,149.8z"/>
	<path class="st1" d="M262.4,134.8c1-4.3,2-8.7,3-13c1.1-4.4,2.2-8.8,3.3-13.2c0.3-1.1,0.7-2.2,1.1-3.3c0.8-2,2.4-2.8,4.4-2.2
		c1.7,0.5,2.5,2.3,2.2,4.3c-0.6,3.4-1.4,6.8-2.1,10.2c-0.2,0.9,0,1.3,0.9,1.5c2.3,0.6,4.5,1.4,6.7,2.2c3.7,1.4,3.9,1.3,5-2.5
		c0.7-2.4,1.4-4.8,2.1-7.2c0.2-0.7,0.5-1.4,0.9-2.1c1-1.9,2.5-2.6,4.2-2.1c2.2,0.7,3.4,2.6,2.9,4.7c-1,3.9-2.2,7.7-3.2,11.6
		c-1.3,5-2.4,10-3.7,15c-0.7,2.7-2.2,3.7-4.5,3.5c-1.9-0.2-3.3-1.6-3.2-3.5c0.1-1.5,0.5-2.9,0.7-4.3c0.2-1.4,0.5-2.7,0.6-4.1
		c0-0.3-0.2-0.8-0.4-0.9c-3.3-1.1-6.6-2.2-10-3.3c-0.8-0.3-1.1,0-1.3,0.8c-0.7,3.1-1.5,6.3-2.3,9.4c-0.6,2.4-3.3,3.5-5.4,2.4
		c-1.5-0.8-1.9-2-1.6-3.6C262.6,134.8,262.5,134.8,262.4,134.8z"/>
	<path class="st1" d="M305.8,130.6c-0.4,1.9-0.8,3.9-1.2,5.8c-0.1,0.5-0.2,1.1-0.3,1.6c-0.3,2-0.4,2.1,1.4,2.7c2.9,0.9,6,1.6,9,2.4
		c1,0.2,1.9,0.5,2.8,0.9c1.1,0.5,1.6,1.4,1.6,2.6c-0.1,1.2-0.7,2-1.8,2.5c-2.2,1-4.5,1.1-6.7,0.5c-3.3-0.8-6.5-1.9-9.6-3.2
		c-4.5-1.9-5.6-3.9-4.8-8.4c1.5-8.5,3.5-16.8,6.3-25c0.3-0.9,1-1.9,1.7-2.5c0.7-0.5,1.8-0.9,2.6-0.8c4.3,0.9,8.6,1.9,12.9,2.9
		c1,0.2,1.9,0.6,2.8,1.1c1,0.5,1.5,1.5,1.4,2.7c-0.1,1.1-0.7,1.9-1.7,2.4c-2,0.9-4.1,0.7-6.1,0.3c-2.1-0.3-4.2-0.7-6.2-1
		c-0.6-0.1-1,0-1.2,0.7c-0.3,1.4-0.6,2.7-1,4.1c-0.2,0.8,0.3,0.9,0.9,1.1c2.4,0.5,4.8,1.1,7.2,1.7c0.9,0.2,1.8,0.6,2.7,0.9
		c1.3,0.5,2,1.6,1.9,2.9c-0.1,1.2-1.1,2.4-2.4,2.5c-2.1,0.1-4.3,0.1-6.4-0.1C309.8,131.6,307.9,131,305.8,130.6z"/>
	<path class="st1" d="M246.1,133.7c-7.8,0.1-12.9-6-13.6-12.3c-1-9.7,3-17.3,10.9-22.7c5.1-3.5,11.6-3.3,16.3,0.1
		c1.5,1.1,2.6,2.4,3.2,4.1c0.6,1.6,0.1,3.2-1.1,4c-1.4,0.9-3.2,0.7-4.4-0.6c-0.3-0.3-0.6-0.6-0.9-1c-1.9-2.5-4.2-2.9-7.1-1.3
		c-4.7,2.6-7.7,6.6-8.6,11.9c-0.3,1.8-0.2,3.8,0,5.7c0.4,3.6,3.3,5.5,6.9,4.9c2.1-0.4,4.2-0.7,6.3-0.9c0.7-0.1,1.4,0.2,2,0.5
		c1.8,1,2,3.2,0.4,4.6c-2,1.7-4.4,2.3-6.9,2.7C248.4,133.6,247.3,133.6,246.1,133.7z"/>
	<path class="st1" d="M406.4,123c-0.1-5,1.8-9.3,4.9-13c4.2-5,9.9-5.7,15.3-4.2c1.9,0.5,3,2,3,3.6c0.1,2.3-2,3.9-4.2,3.2
		c-0.6-0.2-1.1-0.4-1.7-0.6c-1.7-0.9-3.2-0.4-4.5,0.8c-2.8,2.8-4.8,5.9-4.7,10.1c0,1.6,0,3.2,0.3,4.8c1,4.2,4.3,6.2,9.1,5.9
		c2-0.1,3.8-0.7,5.5-1.9c0.9-0.6,1.7-1.1,2.6-1.6c1.3-0.7,2.6-0.5,3.7,0.6c1,1,1.2,2.1,0.6,3.5c-1.5,3.4-4.2,5.3-7.7,6.1
		c-4,0.9-8.1,0.8-12.1-0.5c-5.4-1.7-8.3-5.7-9.5-11.1C406.8,126.8,406.6,124.9,406.4,123z"/>
	<path class="st1" d="M484.9,90.7c2.3,0,4.5,0.5,6.5,1.6c4.3,2.4,5.9,6,5.1,10.8c-0.8,4.6-2.5,8.8-5.7,12.3c-0.9,0.9-1.8,1.9-2.4,3
		c-0.6,1.1-1.2,2.4-1.4,3.6c-0.3,2-1.3,3.2-3,3.3c-2.7,0.1-4.2-0.8-4.6-2.9c-0.6-2.9,0-5.6,1.7-7.9c1.2-1.6,2.4-3.2,3.7-4.7
		c2-2.3,3.2-4.9,3.6-7.9c0.5-3.6-2-4.4-4.3-3.7c-1.6,0.4-3,1.6-4.4,2.5c-1,0.7-1.9,1.8-2.9,2.5c-1.4,1-2.9,1-4.4,0.1
		c-1.2-0.7-1.9-1.9-1.7-3.3c0.1-0.6,0.3-1.2,0.6-1.7C474.6,93.5,479.1,90.9,484.9,90.7z"/>
	<path class="st1" d="M394.6,113.5c2,0,3.3,0.8,3.7,2.9c0.7,3.3,1.1,6.6,1.7,9.9c1,5.2,2.1,10.3,3.1,15.5c0.3,1.5,0.4,3.1-0.3,4.6
		c-1,2.2-3.2,2.8-5.2,1.4c-1.3-0.9-2-2.1-2.3-3.7c-1.1-5.7-2.2-11.5-3.3-17.2c-0.5-2.8-1-5.6-1.5-8.3
		C390.2,115.6,391.8,113.5,394.6,113.5z"/>
	<path class="st1" d="M439.6,105.1c0-3.2,0.9-4.5,2.9-4.9c2-0.4,3.9,0.7,4.5,2.8c0.5,1.7,0.6,3.5,0.9,5.3c1.4,6.7,2.9,13.5,4.3,20.2
		c0.1,0.6,0.2,1.3,0.2,1.9c0,1.8-1.1,3.3-2.5,3.6c-2,0.5-3.9-0.1-4.7-1.9c-0.8-1.8-1.3-3.8-1.7-5.7c-1.2-5.6-2.2-11.2-3.3-16.9
		C439.8,107.9,439.7,106.1,439.6,105.1z"/>
	<path class="st1" d="M499.9,117.4c0.9-4.4,1.8-8.9,2.6-13.3c0.5-2.8,1-5.6,1.4-8.4c0.4-3.1,2.1-4.8,4.7-4.5
		c1.9,0.2,3.2,1.4,3.1,3.3c-0.2,2.9-0.4,5.9-1,8.8c-1,5.3-2.3,10.5-3.6,15.7c-0.5,2.1-2,3-4.2,2.9c-1.7-0.1-2.7-1-2.7-2.7
		c0-0.6,0-1.2,0-1.8C500,117.5,499.9,117.4,499.9,117.4z"/>
	<path class="st1" d="M483.7,135.6c-2.2,0-4.2-1.9-4.2-3.8c0-1.9,1.8-3.4,3.9-3.4c2.3,0,4.1,1.8,4.1,4.1
		C487.4,134.2,485.7,135.6,483.7,135.6z"/>
	<path class="st1" d="M505.7,132.2c0,2.1-1.3,3.4-3.3,3.4c-2.2,0-4.1-1.8-4-3.8c0-1.7,1.4-3.1,3.2-3.1
		C504.3,128.7,505.7,129.9,505.7,132.2z"/>
</g>
</svg>
